<?xml version="1.0" encoding="UTF-8"?>
<svg xmlns="http://www.w3.org/2000/svg" xmlns:xlink="http://www.w3.org/1999/xlink" width="886px" height="134px" viewBox="0 0 886 134" version="1.1">
  <title>BFI-Core-Logo-RGB-1@1x</title>
  <defs>
    <rect id="path-1" x="0" y="0" width="181.46" height="133"/>
    <rect id="path-3" x="5.32907052e-15" y="-3.55271368e-15" width="181.46" height="181.46"/>
  </defs>
  <g id="Page-1" stroke="none" stroke-width="1" fill="none" fill-rule="evenodd">
    <g id="BFI-Core-Logo-RGB-1" transform="translate(0.88, 0.04)">
      <g id="rule" transform="translate(180.88, 37.33)" fill="#231F20" fill-rule="nonzero">
        <rect id="Rectangle" x="0" y="0" width="702.73" height="1.67"/>
      </g>
      <g id="secondary">
        <g id="Clipped">
          <mask id="mask-2" fill="white">
            <use xlink:href="#path-1"/>
          </mask>
          <g id="Rectangle"/>
          <g mask="url(#mask-2)">
            <g transform="translate(0, -22.73)">
              <mask id="mask-4" fill="white">
                <use xlink:href="#path-3"/>
              </mask>
              <g id="Rectangle" stroke="none" fill="none"/>
              <g id="Group" stroke="none" stroke-width="1" fill="none" fill-rule="evenodd" mask="url(#mask-4)">
                <g transform="translate(26.25, 23.61)" fill="#7F1416" fill-rule="nonzero" id="Path">
                  <path d="M112.1,26.01 L133.85,0 L25.76,0 C40.68,5.38 49.3,16.75 49.3,31.95 L49.3,32.34 C49.3,47.8 41.08,56.4 31.3,61.88 C47.15,67.94 56.93,77.14 56.93,95.53 L56.93,95.92 C56.93,113.37 47.03,124.72 30.58,130.01 L79.04,130.01 L79.04,79.67 L112.27,79.67 L112.27,53.67 L79.04,53.67 L79.04,26 L112.11,26 L112.1,26.01 Z"/>
                  <path d="M19.36,37.43 L19.36,37.03 C19.36,28.12 12.46,23.06 7.10542736e-15,22.96 L7.10542736e-15,51.85 C11.93,51.36 19.36,46.98 19.36,37.43"/>
                  <path d="M4.69,76.95 L7.10542736e-15,76.95 L7.10542736e-15,107.08 L5.67,107.08 C18.97,107.08 26.99,102.38 26.99,92.21 L26.99,91.82 C26.99,82.63 20.14,76.95 4.69,76.95"/>
                </g>
              </g>
            </g>
          </g>
        </g>
        <path d="M180.87,52.6 L195.17,52.6 C198.69,52.6 201.46,53.57 203.22,55.33 C204.63,56.74 205.33,58.45 205.33,60.57 L205.33,60.66 C205.33,64.14 203.48,66.07 201.28,67.3 C204.84,68.66 207.04,70.73 207.04,74.87 L207.04,74.96 C207.04,80.59 202.46,83.41 195.51,83.41 L180.86,83.41 L180.86,52.61 L180.87,52.6 Z M198.6,61.71 C198.6,59.69 197.02,58.54 194.16,58.54 L187.47,58.54 L187.47,65.05 L193.72,65.05 C196.71,65.05 198.6,64.08 198.6,61.79 L198.6,61.7 L198.6,61.71 Z M195.3,70.69 L187.47,70.69 L187.47,77.47 L195.52,77.47 C198.51,77.47 200.32,76.41 200.32,74.13 L200.32,74.04 C200.32,71.97 198.78,70.7 195.3,70.7 L195.3,70.69 Z" id="Shape" fill="#58595B" fill-rule="nonzero"/>
        <polygon id="Path" fill="#58595B" fill-rule="nonzero" points="213.41 52.6 236.65 52.6 236.65 58.63 220.15 58.63 220.15 64.88 234.67 64.88 234.67 70.91 220.15 70.91 220.15 77.38 236.87 77.38 236.87 83.41 213.41 83.41 213.41 52.61"/>
        <path d="M241.67,68.09 L241.67,68 C241.67,59.24 248.27,52.07 257.73,52.07 C263.54,52.07 267.02,54.01 269.88,56.82 L265.57,61.79 C263.19,59.63 260.77,58.31 257.69,58.31 C252.5,58.31 248.76,62.62 248.76,67.9 L248.76,67.99 C248.76,73.27 252.41,77.67 257.69,77.67 C261.21,77.67 263.37,76.26 265.79,74.06 L270.1,78.42 C266.93,81.81 263.41,83.92 257.47,83.92 C248.4,83.92 241.67,76.92 241.67,68.08 L241.67,68.09 Z" id="Path" fill="#58595B" fill-rule="nonzero"/>
        <polygon id="Path" fill="#58595B" fill-rule="nonzero" points="275.52 52.6 282.3 52.6 282.3 66.07 294.8 52.6 302.98 52.6 290.44 65.67 303.55 83.4 295.41 83.4 285.86 70.29 282.3 73.99 282.3 83.41 275.52 83.41 275.52 52.61"/>
        <polygon id="Path" fill="#58595B" fill-rule="nonzero" points="308.12 52.6 331.36 52.6 331.36 58.63 314.86 58.63 314.86 64.88 329.38 64.88 329.38 70.91 314.86 70.91 314.86 77.38 331.58 77.38 331.58 83.41 308.12 83.41 308.12 52.61"/>
        <path d="M338.46,52.6 L352.54,52.6 C356.46,52.6 359.49,53.7 361.52,55.72 C363.24,57.44 364.16,59.86 364.16,62.76 L364.16,62.85 C364.16,67.82 361.48,70.95 357.56,72.4 L365.09,83.4 L357.17,83.4 L350.57,73.54 L345.25,73.54 L345.25,83.4 L338.47,83.4 L338.47,52.6 L338.46,52.6 Z M352.1,67.56 C355.4,67.56 357.29,65.8 357.29,63.2 L357.29,63.11 C357.29,60.21 355.27,58.71 351.96,58.71 L345.23,58.71 L345.23,67.56 L352.1,67.56 L352.1,67.56 Z" id="Shape" fill="#58595B" fill-rule="nonzero"/>
        <polygon id="Path" fill="#58595B" fill-rule="nonzero" points="384.79 52.6 408.25 52.6 408.25 58.76 391.57 58.76 391.57 65.32 406.27 65.32 406.27 71.48 391.57 71.48 391.57 83.41 384.79 83.41 384.79 52.61"/>
        <path d="M413.91,52.6 L427.99,52.6 C431.91,52.6 434.94,53.7 436.97,55.72 C438.69,57.44 439.61,59.86 439.61,62.76 L439.61,62.85 C439.61,67.82 436.93,70.95 433.01,72.4 L440.54,83.4 L432.62,83.4 L426.02,73.54 L420.7,73.54 L420.7,83.4 L413.92,83.4 L413.92,52.6 L413.91,52.6 Z M427.55,67.56 C430.85,67.56 432.74,65.8 432.74,63.2 L432.74,63.11 C432.74,60.21 430.72,58.71 427.41,58.71 L420.68,58.71 L420.68,67.56 L427.55,67.56 L427.55,67.56 Z" id="Shape" fill="#58595B" fill-rule="nonzero"/>
        <polygon id="Path" fill="#58595B" fill-rule="nonzero" points="446.44 52.6 453.22 52.6 453.22 83.4 446.44 83.4"/>
        <polygon id="Path" fill="#58595B" fill-rule="nonzero" points="461.32 52.6 484.56 52.6 484.56 58.63 468.06 58.63 468.06 64.88 482.58 64.88 482.58 70.91 468.06 70.91 468.06 77.38 484.78 77.38 484.78 83.41 461.32 83.41 461.32 52.61"/>
        <path d="M491.66,52.6 L503.67,52.6 C513.35,52.6 520.04,59.25 520.04,67.91 L520.04,68 C520.04,76.67 513.35,83.4 503.67,83.4 L491.66,83.4 L491.66,52.6 L491.66,52.6 Z M498.44,58.72 L498.44,77.29 L503.68,77.29 C509.22,77.29 512.97,73.55 512.97,68.09 L512.97,68 C512.97,62.54 509.23,58.71 503.68,58.71 L498.44,58.71 L498.44,58.72 Z" id="Shape" fill="#58595B" fill-rule="nonzero"/>
        <polygon id="Path" fill="#58595B" fill-rule="nonzero" points="526.45 52.6 533.76 52.6 541.86 65.63 549.96 52.6 557.26 52.6 557.26 83.4 550.53 83.4 550.53 63.29 541.86 76.45 541.68 76.45 533.1 63.42 533.1 83.4 526.45 83.4"/>
        <path d="M575.33,52.38 L581.58,52.38 L594.78,83.4 L587.7,83.4 L584.88,76.49 L571.85,76.49 L569.03,83.4 L562.12,83.4 L575.32,52.38 L575.33,52.38 Z M582.46,70.51 L578.37,60.52 L574.28,70.51 L582.46,70.51 L582.46,70.51 Z" id="Shape" fill="#58595B" fill-rule="nonzero"/>
        <polygon id="Path" fill="#58595B" fill-rule="nonzero" points="599.66 52.6 605.91 52.6 620.34 71.57 620.34 52.6 627.03 52.6 627.03 83.4 621.27 83.4 606.35 63.82 606.35 83.4 599.66 83.4"/>
        <polygon id="Path" fill="#58595B" fill-rule="nonzero" points="649.24 52.6 656.02 52.6 656.02 83.4 649.24 83.4"/>
        <polygon id="Path" fill="#58595B" fill-rule="nonzero" points="664.13 52.6 670.38 52.6 684.81 71.57 684.81 52.6 691.5 52.6 691.5 83.4 685.74 83.4 670.82 63.82 670.82 83.4 664.13 83.4"/>
        <path d="M697.33,78.92 L701.33,74.12 C704.1,76.41 707.01,77.86 710.53,77.86 C713.3,77.86 714.97,76.76 714.97,74.96 L714.97,74.87 C714.97,73.15 713.91,72.27 708.76,70.95 C702.56,69.37 698.55,67.65 698.55,61.53 L698.55,61.44 C698.55,55.85 703.04,52.15 709.33,52.15 C713.82,52.15 717.65,53.56 720.77,56.07 L717.25,61.17 C714.52,59.28 711.84,58.13 709.24,58.13 C706.64,58.13 705.28,59.32 705.28,60.81 L705.28,60.9 C705.28,62.92 706.6,63.58 711.92,64.95 C718.17,66.58 721.69,68.82 721.69,74.19 L721.69,74.28 C721.69,80.4 717.02,83.83 710.38,83.83 C705.71,83.83 701.01,82.2 697.31,78.9 L697.33,78.92 Z" id="Path" fill="#58595B" fill-rule="nonzero"/>
        <polygon id="Path" fill="#58595B" fill-rule="nonzero" points="734.94 58.85 725.57 58.85 725.57 52.6 751.09 52.6 751.09 58.85 741.72 58.85 741.72 83.41 734.94 83.41"/>
        <polygon id="Path" fill="#58595B" fill-rule="nonzero" points="756.3 52.6 763.08 52.6 763.08 83.4 756.3 83.4"/>
        <polygon id="Path" fill="#58595B" fill-rule="nonzero" points="777.59 58.85 768.22 58.85 768.22 52.6 793.74 52.6 793.74 58.85 784.37 58.85 784.37 83.41 777.59 83.41"/>
        <path d="M798.57,70.2 L798.57,52.6 L805.35,52.6 L805.35,70.03 C805.35,75.05 807.86,77.64 812,77.64 C816.14,77.64 818.64,75.13 818.64,70.25 L818.64,52.6 L825.42,52.6 L825.42,69.98 C825.42,79.31 820.18,83.89 811.91,83.89 C803.64,83.89 798.58,79.27 798.58,70.2 L798.57,70.2 Z" id="Path" fill="#58595B" fill-rule="nonzero"/>
        <polygon id="Path" fill="#58595B" fill-rule="nonzero" points="839.62 58.85 830.25 58.85 830.25 52.6 855.77 52.6 855.77 58.85 846.4 58.85 846.4 83.41 839.62 83.41"/>
        <polygon id="Path" fill="#58595B" fill-rule="nonzero" points="860.83 52.6 884.07 52.6 884.07 58.63 867.57 58.63 867.57 64.88 882.09 64.88 882.09 70.91 867.57 70.91 867.57 77.38 884.29 77.38 884.29 83.41 860.83 83.41 860.83 52.61"/>
        <polygon id="Path" fill="#58595B" fill-rule="nonzero" points="180.87 99.6 204.33 99.6 204.33 105.76 187.65 105.76 187.65 112.32 202.35 112.32 202.35 118.48 187.65 118.48 187.65 130.41 180.87 130.41 180.87 99.61"/>
        <path d="M207.8,115.09 L207.8,115 C207.8,106.24 214.71,99.07 224.22,99.07 C233.73,99.07 240.55,106.15 240.55,114.91 L240.55,115 C240.55,123.76 233.64,130.93 224.13,130.93 C214.62,130.93 207.8,123.85 207.8,115.09 Z M233.46,115.09 L233.46,115 C233.46,109.72 229.59,105.32 224.13,105.32 C218.67,105.32 214.89,109.63 214.89,114.91 L214.89,115 C214.89,120.28 218.76,124.68 224.22,124.68 C229.68,124.68 233.46,120.37 233.46,115.09 Z" id="Shape" fill="#58595B" fill-rule="nonzero"/>
        <path d="M246.95,99.6 L261.03,99.6 C264.95,99.6 267.98,100.7 270.01,102.72 C271.73,104.44 272.65,106.86 272.65,109.76 L272.65,109.85 C272.65,114.82 269.97,117.95 266.05,119.4 L273.58,130.4 L265.66,130.4 L259.06,120.54 L253.74,120.54 L253.74,130.4 L246.96,130.4 L246.96,99.6 L246.95,99.6 Z M260.59,114.56 C263.89,114.56 265.78,112.8 265.78,110.2 L265.78,110.11 C265.78,107.21 263.76,105.71 260.45,105.71 L253.72,105.71 L253.72,114.56 L260.59,114.56 L260.59,114.56 Z" id="Shape" fill="#58595B" fill-rule="nonzero"/>
        <polygon id="Path" fill="#58595B" fill-rule="nonzero" points="293.28 99.6 316.52 99.6 316.52 105.63 300.02 105.63 300.02 111.88 314.54 111.88 314.54 117.91 300.02 117.91 300.02 124.38 316.74 124.38 316.74 130.41 293.28 130.41 293.28 99.61"/>
        <path d="M321.54,115.09 L321.54,115 C321.54,106.24 328.14,99.07 337.6,99.07 C343.41,99.07 346.89,101.01 349.75,103.82 L345.44,108.79 C343.06,106.63 340.64,105.31 337.56,105.31 C332.37,105.31 328.63,109.62 328.63,114.9 L328.63,114.99 C328.63,120.27 332.28,124.67 337.56,124.67 C341.08,124.67 343.24,123.26 345.66,121.06 L349.97,125.42 C346.8,128.81 343.28,130.92 337.34,130.92 C328.27,130.92 321.54,123.92 321.54,115.08 L321.54,115.09 Z" id="Path" fill="#58595B" fill-rule="nonzero"/>
        <path d="M353.09,115.09 L353.09,115 C353.09,106.24 360,99.07 369.51,99.07 C379.02,99.07 385.84,106.15 385.84,114.91 L385.84,115 C385.84,123.76 378.93,130.93 369.42,130.93 C359.91,130.93 353.09,123.85 353.09,115.09 Z M378.75,115.09 L378.75,115 C378.75,109.72 374.88,105.32 369.42,105.32 C363.96,105.32 360.18,109.63 360.18,114.91 L360.18,115 C360.18,120.28 364.05,124.68 369.51,124.68 C374.97,124.68 378.75,120.37 378.75,115.09 Z" id="Shape" fill="#58595B" fill-rule="nonzero"/>
        <polygon id="Path" fill="#58595B" fill-rule="nonzero" points="392.24 99.6 398.49 99.6 412.92 118.57 412.92 99.6 419.61 99.6 419.61 130.4 413.85 130.4 398.93 110.82 398.93 130.4 392.24 130.4"/>
        <path d="M426.08,115.09 L426.08,115 C426.08,106.24 432.99,99.07 442.5,99.07 C452.01,99.07 458.83,106.15 458.83,114.91 L458.83,115 C458.83,123.76 451.92,130.93 442.41,130.93 C432.9,130.93 426.08,123.85 426.08,115.09 Z M451.74,115.09 L451.74,115 C451.74,109.72 447.87,105.32 442.41,105.32 C436.95,105.32 433.17,109.63 433.17,114.91 L433.17,115 C433.17,120.28 437.04,124.68 442.5,124.68 C447.96,124.68 451.74,120.37 451.74,115.09 Z" id="Shape" fill="#58595B" fill-rule="nonzero"/>
        <polygon id="Path" fill="#58595B" fill-rule="nonzero" points="465.23 99.6 472.54 99.6 480.64 112.63 488.74 99.6 496.04 99.6 496.04 130.4 489.31 130.4 489.31 110.29 480.64 123.45 480.46 123.45 471.88 110.42 471.88 130.4 465.23 130.4 465.23 99.6"/>
        <polygon id="Path" fill="#58595B" fill-rule="nonzero" points="504.24 99.6 511.02 99.6 511.02 130.4 504.24 130.4"/>
        <path d="M517.55,115.09 L517.55,115 C517.55,106.24 524.15,99.07 533.61,99.07 C539.42,99.07 542.9,101.01 545.76,103.82 L541.45,108.79 C539.07,106.63 536.65,105.31 533.57,105.31 C528.38,105.31 524.64,109.62 524.64,114.9 L524.64,114.99 C524.64,120.27 528.29,124.67 533.57,124.67 C537.09,124.67 539.25,123.26 541.67,121.06 L545.98,125.42 C542.81,128.81 539.29,130.92 533.35,130.92 C524.28,130.92 517.55,123.92 517.55,115.08 L517.55,115.09 Z" id="Path" fill="#58595B" fill-rule="nonzero"/>
        <path d="M550.14,125.92 L554.14,121.12 C556.91,123.41 559.82,124.86 563.34,124.86 C566.11,124.86 567.78,123.76 567.78,121.96 L567.78,121.87 C567.78,120.15 566.72,119.27 561.58,117.95 C555.37,116.37 551.37,114.65 551.37,108.53 L551.37,108.44 C551.37,102.85 555.86,99.15 562.15,99.15 C566.64,99.15 570.47,100.56 573.59,103.07 L570.07,108.17 C567.34,106.28 564.66,105.13 562.06,105.13 C559.46,105.13 558.1,106.32 558.1,107.81 L558.1,107.9 C558.1,109.92 559.42,110.58 564.74,111.95 C570.99,113.58 574.51,115.82 574.51,121.19 L574.51,121.28 C574.51,127.4 569.84,130.83 563.2,130.83 C558.53,130.83 553.83,129.2 550.13,125.9 L550.14,125.92 Z" id="Path" fill="#58595B" fill-rule="nonzero"/>
      </g>
      <g id="primary" transform="translate(180.7, 0.38)" fill="#8B0021" fill-rule="nonzero">
        <polygon id="Path" points="6.96 5.04 0 5.04 0 0.4 18.96 0.4 18.96 5.04 12 5.04 12 23.28 6.97 23.28 6.97 5.04"/>
        <polygon id="Path" points="23.96 0.4 28.99 0.4 28.99 9.45 38.27 9.45 38.27 0.4 43.3 0.4 43.3 23.28 38.27 23.28 38.27 14.1 28.99 14.1 28.99 23.28 23.96 23.28 23.96 0.4"/>
        <polygon id="Path" points="49.94 0.4 67.2 0.4 67.2 4.88 54.94 4.88 54.94 9.52 65.73 9.52 65.73 14 54.94 14 54.94 18.8 67.36 18.8 67.36 23.28 49.94 23.28 49.94 0.4"/>
        <path d="M83.57,13.47 L83.57,0.4 L88.6,0.4 L88.6,13.34 C88.6,17.07 90.46,18.99 93.53,18.99 C96.6,18.99 98.47,17.13 98.47,13.5 L98.47,0.39 L103.5,0.39 L103.5,13.3 C103.5,20.23 99.61,23.63 93.47,23.63 C87.33,23.63 83.57,20.2 83.57,13.46 L83.57,13.47 Z" id="Path"/>
        <polygon id="Path" points="109.78 0.4 114.42 0.4 125.14 14.49 125.14 0.4 130.11 0.4 130.11 23.28 125.83 23.28 114.75 8.74 114.75 23.28 109.78 23.28 109.78 0.4"/>
        <polygon id="Path" points="136.98 0.4 142.01 0.4 142.01 23.28 136.98 23.28 136.98 0.4"/>
        <polygon id="Path" points="146.91 0.4 152.47 0.4 158.45 16.51 164.43 0.4 169.86 0.4 160.61 23.44 156.16 23.44 146.91 0.4"/>
        <polygon id="Path" points="174.53 0.4 191.79 0.4 191.79 4.88 179.53 4.88 179.53 9.52 190.32 9.52 190.32 14 179.53 14 179.53 18.8 191.95 18.8 191.95 23.28 174.53 23.28 174.53 0.4"/>
        <path d="M197.57,0.4 L208.03,0.4 C210.94,0.4 213.19,1.22 214.7,2.72 C215.97,3.99 216.66,5.79 216.66,7.95 L216.66,8.02 C216.66,11.71 214.67,14.03 211.76,15.11 L217.35,23.28 L211.47,23.28 L206.57,15.96 L202.62,15.96 L202.62,23.28 L197.59,23.28 L197.59,0.4 L197.57,0.4 Z M207.7,11.51 C210.15,11.51 211.56,10.2 211.56,8.27 L211.56,8.2 C211.56,6.04 210.06,4.93 207.6,4.93 L202.6,4.93 L202.6,11.5 L207.7,11.5 L207.7,11.51 Z" id="Shape"/>
        <path d="M220.77,19.94 L223.74,16.38 C225.8,18.08 227.96,19.16 230.57,19.16 C232.63,19.16 233.87,18.34 233.87,17 L233.87,16.93 C233.87,15.65 233.09,15 229.26,14.02 C224.65,12.84 221.68,11.57 221.68,7.03 L221.68,6.96 C221.68,2.81 225.01,0.06 229.69,0.06 C233.02,0.06 235.87,1.11 238.19,2.97 L235.58,6.76 C233.55,5.36 231.56,4.5 229.63,4.5 C227.7,4.5 226.69,5.38 226.69,6.49 L226.69,6.56 C226.69,8.06 227.67,8.55 231.62,9.57 C236.26,10.78 238.88,12.45 238.88,16.43 L238.88,16.5 C238.88,21.04 235.41,23.59 230.48,23.59 C227.02,23.59 223.52,22.38 220.77,19.93 L220.77,19.94 Z" id="Path"/>
        <polygon id="Path" points="244.63 0.4 249.66 0.4 249.66 23.28 244.63 23.28 244.63 0.4"/>
        <polygon id="Path" points="261.86 5.04 254.9 5.04 254.9 0.4 273.86 0.4 273.86 5.04 266.9 5.04 266.9 23.28 261.87 23.28 261.87 5.04"/>
        <polygon id="Path" points="285.29 14.26 276.5 0.4 282.38 0.4 287.84 9.58 293.4 0.4 299.12 0.4 290.33 14.16 290.33 23.28 285.3 23.28 285.3 14.26"/>
        <path d="M313.33,11.9 L313.33,11.83 C313.33,5.33 318.46,0 325.52,0 C332.58,0 337.65,5.26 337.65,11.77 L337.65,11.84 C337.65,18.35 332.52,23.67 325.46,23.67 C318.4,23.67 313.33,18.41 313.33,11.9 L313.33,11.9 Z M332.39,11.9 L332.39,11.83 C332.39,7.91 329.51,4.64 325.46,4.64 C321.41,4.64 318.6,7.84 318.6,11.76 L318.6,11.83 C318.6,15.75 321.48,19.02 325.53,19.02 C329.58,19.02 332.39,15.82 332.39,11.89 L332.39,11.9 Z" id="Shape"/>
        <polygon id="Path" points="343.27 0.4 360.69 0.4 360.69 4.98 348.3 4.98 348.3 9.85 359.22 9.85 359.22 14.43 348.3 14.43 348.3 23.29 343.27 23.29 343.27 0.41"/>
        <path d="M375.79,11.9 L375.79,11.83 C375.79,5.33 380.69,0 387.72,0 C392.03,0 394.62,1.44 396.74,3.53 L393.54,7.22 C391.77,5.62 389.98,4.64 387.69,4.64 C383.83,4.64 381.05,7.84 381.05,11.76 L381.05,11.83 C381.05,15.75 383.76,19.02 387.69,19.02 C390.3,19.02 391.91,17.97 393.7,16.34 L396.9,19.57 C394.55,22.09 391.93,23.66 387.52,23.66 C380.79,23.66 375.79,18.46 375.79,11.89 L375.79,11.9 Z" id="Path"/>
        <polygon id="Path" points="402.07 0.4 407.1 0.4 407.1 9.45 416.38 9.45 416.38 0.4 421.41 0.4 421.41 23.28 416.38 23.28 416.38 14.1 407.1 14.1 407.1 23.28 402.07 23.28 402.07 0.4"/>
        <polygon id="Path" points="428.28 0.4 433.31 0.4 433.31 23.28 428.28 23.28 428.28 0.4"/>
        <path d="M439.16,11.9 L439.16,11.83 C439.16,5.33 444.06,0 451.09,0 C455.4,0 457.99,1.44 460.11,3.53 L456.91,7.22 C455.14,5.62 453.35,4.64 451.06,4.64 C447.2,4.64 444.42,7.84 444.42,11.76 L444.42,11.83 C444.42,15.75 447.13,19.02 451.06,19.02 C453.67,19.02 455.28,17.97 457.07,16.34 L460.27,19.57 C457.92,22.09 455.3,23.66 450.89,23.66 C444.16,23.66 439.16,18.46 439.16,11.89 L439.16,11.9 Z" id="Path"/>
        <path d="M473.29,0.23 L477.93,0.23 L487.74,23.27 L482.48,23.27 L480.39,18.14 L470.72,18.14 L468.63,23.27 L463.5,23.27 L473.31,0.23 L473.29,0.23 Z M478.58,13.7 L475.54,6.28 L472.5,13.7 L478.58,13.7 L478.58,13.7 Z" id="Shape"/>
        <path d="M489.92,11.9 L489.92,11.83 C489.92,5.33 494.99,0 501.92,0 C506.04,0 508.52,1.11 510.91,3.14 L507.74,6.96 C505.97,5.49 504.41,4.64 501.76,4.64 C498.1,4.64 495.19,7.88 495.19,11.76 L495.19,11.83 C495.19,16.01 498.07,19.09 502.12,19.09 C503.95,19.09 505.59,18.63 506.86,17.72 L506.86,14.45 L501.79,14.45 L501.79,10.1 L511.73,10.1 L511.73,20.04 C509.38,22.03 506.14,23.67 501.96,23.67 C494.84,23.67 489.93,18.67 489.93,11.9 L489.92,11.9 Z" id="Path"/>
        <path d="M516.69,11.9 L516.69,11.83 C516.69,5.33 521.82,0 528.88,0 C535.94,0 541.01,5.26 541.01,11.77 L541.01,11.84 C541.01,18.35 535.88,23.67 528.82,23.67 C521.76,23.67 516.69,18.41 516.69,11.9 L516.69,11.9 Z M535.74,11.9 L535.74,11.83 C535.74,7.91 532.86,4.64 528.81,4.64 C524.76,4.64 521.95,7.84 521.95,11.76 L521.95,11.83 C521.95,15.75 524.83,19.02 528.88,19.02 C532.93,19.02 535.74,15.82 535.74,11.89 L535.74,11.9 Z" id="Shape"/>
      </g>
    </g>
  </g>
</svg>